<svg xmlns="http://www.w3.org/2000/svg" viewBox="0 0 3000 3000"><style>.cls0{stroke-width:7;stroke:#000;stroke-linecap:round;fill:#dbaa73}.cls1,.cls10,.cls12,.cls2,.cls3,.cls4,.cls5,.cls9{stroke-width:7;stroke:#000;stroke-linecap:round;fill:none}.cls10,.cls12,.cls2,.cls3,.cls4,.cls5,.cls9{fill:#34d34d}.cls10,.cls12,.cls3,.cls4,.cls5,.cls9{fill:#bd1220}.cls10,.cls12,.cls4,.cls5,.cls9{fill:#162983}.cls10,.cls12,.cls5,.cls9{fill:#ff8080}.cls10,.cls12,.cls9{fill:#000}.cls10,.cls12{fill:#e95d0f}.cls12{fill:#328925}.cls17,.cls18{stroke:#000;stroke-width:2}.cls18{stroke-width:5}</style><g class="ideograms"><path d="M1500 525a975 975 40 0 1 254.914 33.913l117.652-434.347A1425 1425 0 0 0 1500 75z" class="cls0"/><path d="M1500 525a975 975 40 0 1 254.914 33.913l117.652-434.347A1425 1425 0 0 0 1500 75z" class="cls1"/><path d="M1801.2 572.69a975 975 40 0 1 183.369 81.25l223.647-390.489a1425 1425 0 0 0-268.001-118.75z" class="cls2"/><path d="M1801.2 572.69a975 975 40 0 1 183.369 81.25l223.647-390.489a1425 1425 0 0 0-268.001-118.75z" class="cls1"/><path d="M2025.868 678.972a975 975 40 0 1 196.367 166.046l333.339-302.3a1425 1425 0 0 0-286.997-242.682z" class="cls3"/><path d="M2025.868 678.972a975 975 40 0 1 196.367 166.046l333.339-302.3a1425 1425 0 0 0-286.997-242.682z" class="cls1"/><path d="M2253.781 881.583a975 975 40 0 1 19.224 24.204l356.771-274.252a1425 1425 0 0 0-28.096-35.375z" class="cls4"/><path d="M2253.781 881.583a975 975 40 0 1 19.224 24.204l356.771-274.252a1425 1425 0 0 0-28.096-35.375z" class="cls1"/><path d="M2301.48 944.792a975 975 40 0 1 64.227 106.682l399.558-207.012a1425 1425 0 0 0-93.872-155.919z" class="cls5"/><path d="M2301.48 944.792a975 975 40 0 1 64.227 106.682l399.558-207.012a1425 1425 0 0 0-93.872-155.919z" class="cls1"/><path d="M2386.855 1094.89a975 975 40 0 1 13.511 30.99l415.554-172.671a1425 1425 0 0 0-19.748-45.292z" stroke-width="7" stroke="#000" stroke-linecap="round" fill="#9e7742"/><path d="M2386.855 1094.89a975 975 40 0 1 13.511 30.99l415.554-172.671a1425 1425 0 0 0-19.748-45.292z" class="cls1"/><path d="M2417.787 1170.921a975 975 40 0 1 51.481 223.514l447.355-48.722a1425 1425 0 0 0-75.243-326.674z" stroke-width="7" stroke="#000" stroke-linecap="round" fill="#ffec00"/><path d="M2417.787 1170.921a975 975 40 0 1 51.481 223.514l447.355-48.722a1425 1425 0 0 0-75.243-326.674z" class="cls1"/><path d="M2473.306 1442.559a975 975 40 0 1-8.418 197.502l445.332 64.643a1425 1425 0 0 0 12.305-288.657z" class="cls0"/><path d="M2473.306 1442.559a975 975 40 0 1-8.418 197.502l445.332 64.643a1425 1425 0 0 0 12.305-288.657z" class="cls1"/><path d="M2456.769 1687.666a975 975 40 0 1-42.959 152.3l421.758 156.908a1425 1425 0 0 0 62.786-222.593z" stroke-width="7" stroke="#000" stroke-linecap="round" fill="#57b9a8"/><path d="M2456.769 1687.666a975 975 40 0 1-42.959 152.3l421.758 156.908a1425 1425 0 0 0 62.786-222.593z" class="cls1"/><path d="M2395.855 1884.798a975 975 40 0 1-59.81 116.853l385.867 231.532a1425 1425 0 0 0 87.414-170.787z" class="cls9"/><path d="M2395.855 1884.798a975 975 40 0 1-59.81 116.853l385.867 231.532a1425 1425 0 0 0 87.414-170.787z" class="cls1"/><path d="M2310.179 2042.434a975 975 40 0 1-183.955 204.873l289.027 344.911a1425 1425 0 0 0 268.857-299.43z" class="cls10"/><path d="M2310.179 2042.434a975 975 40 0 1-183.955 204.873l289.027 344.911a1425 1425 0 0 0 268.857-299.43z" class="cls1"/><path d="M2088.453 2277.399a975 975 40 0 1-37.621 27.094l254.23 371.304a1425 1425 0 0 0 54.984-39.599z" stroke-width="7" stroke="#000" stroke-linecap="round" fill="#ffb4ff"/><path d="M2088.453 2277.399a975 975 40 0 1-37.621 27.094l254.23 371.304a1425 1425 0 0 0 54.984-39.599z" class="cls1"/><path d="M2010.321 2330.781a975 975 40 0 1-219.245 99.756l134.343 429.479a1425 1425 0 0 0 320.435-145.797z" class="cls4"/><path d="M2010.321 2330.781a975 975 40 0 1-219.245 99.756l134.343 429.479a1425 1425 0 0 0 320.435-145.797z" class="cls1"/><path d="M1744.643 2443.809a975 975 40 0 1-256.234 31.122l-5.35 449.968a1425 1425 0 0 0 374.496-45.486z" class="cls3"/><path d="M1744.643 2443.809a975 975 40 0 1-256.234 31.122l-5.35 449.968a1425 1425 0 0 0 374.496-45.486z" class="cls1"/><path d="M1440.148 2473.161a975 975 40 0 1-231.224-42.624l-134.343 429.479a1425 1425 0 0 0 337.943 62.297z" class="cls0"/><path d="M1440.148 2473.161a975 975 40 0 1-231.224-42.624l-134.343 429.479a1425 1425 0 0 0 337.943 62.297z" class="cls1"/><path d="M1163.204 2414.983a975 975 40 0 1-169.404-81.684l-233.63 384.599a1425 1425 0 0 0 247.59 119.385z" class="cls12"/><path d="M1163.204 2414.983a975 975 40 0 1-169.404-81.684l-233.63 384.599a1425 1425 0 0 0 247.59 119.385z" class="cls1"/><path d="M953.16 2307.212a975 975 40 0 1-63.702-47.039l-281.789 350.849a1425 1425 0 0 0 93.103 68.749z" stroke-width="7" stroke="#000" stroke-linecap="round" fill="#799c13"/><path d="M953.16 2307.212a975 975 40 0 1-63.702-47.039l-281.789 350.849a1425 1425 0 0 0 93.103 68.749z" class="cls1"/><path d="M852.566 2229.009a975 975 40 0 1-152.944-172.214l-369.405 256.982a1425 1425 0 0 0 223.533 251.698z" class="cls2"/><path d="M852.566 2229.009a975 975 40 0 1-152.944-172.214l-369.405 256.982a1425 1425 0 0 0 223.533 251.698z" class="cls1"/><path d="M673.034 2016.48a975 975 40 0 1-79.928-158.475l-418.567 165.233a1425 1425 0 0 0 116.818 231.618z" class="cls5"/><path d="M673.034 2016.48a975 975 40 0 1-79.928-158.475l-418.567 165.233a1425 1425 0 0 0 116.818 231.618z" class="cls1"/><path d="M576.491 1812.66a975 975 40 0 1-32.508-121.204l-441.239 88.365a1425 1425 0 0 0 47.512 177.144z" class="cls10"/><path d="M576.491 1812.66a975 975 40 0 1-32.508-121.204l-441.239 88.365a1425 1425 0 0 0 47.512 177.144z" class="cls1"/><path d="M535.675 1643.883a975 975 40 0 1-1.378-278.206l-445.709-61.995a1425 1425 0 0 0 2.014 406.609z" class="cls12"/><path d="M535.675 1643.883a975 975 40 0 1-1.378-278.206l-445.709-61.995a1425 1425 0 0 0 2.014 406.609z" class="cls1"/><path d="M542.133 1318.024a975 975 40 0 1 34.358-130.684l-426.235-144.305a1425 1425 0 0 0-50.216 191.001z" class="cls10"/><path d="M542.133 1318.024a975 975 40 0 1 34.358-130.684l-426.235-144.305a1425 1425 0 0 0-50.216 191.001z" class="cls1"/><path d="M593.106 1141.995A975 975 40 0 1 718.25 917.34L357.443 648.42a1425 1425 0 0 0-182.904 328.342z" stroke-width="7" stroke="#000" stroke-linecap="round" fill="#c8fa28"/><path d="M593.106 1141.995A975 975 40 0 1 718.25 917.34L357.443 648.42a1425 1425 0 0 0-182.904 328.342z" class="cls1"/><path d="M748.06 879.346a975 975 40 0 1 154.287-149.694l-275.84-355.545A1425 1425 0 0 0 401.011 592.89z" stroke-width="7" stroke="#000" stroke-linecap="round" fill="#fffad0"/><path d="M748.06 879.346a975 975 40 0 1 154.287-149.694l-275.84-355.545A1425 1425 0 0 0 401.011 592.89z" class="cls1"/><path d="M941.225 701.004a975 975 40 0 1 135.738-79.449L881.716 216.119a1425 1425 0 0 0-198.388 116.117z" class="cls9"/><path d="M941.225 701.004a975 975 40 0 1 135.738-79.449L881.716 216.119a1425 1425 0 0 0-198.388 116.117z" class="cls1"/><path d="M1120.979 601.686a975 975 40 0 1 76.903-28.697l-139.439-427.851a1425 1425 0 0 0-112.396 41.941z" class="cls5"/><path d="M1120.979 601.686a975 975 40 0 1 76.903-28.697l-139.439-427.851a1425 1425 0 0 0-112.396 41.941z" class="cls1"/><path d="M1244.154 559.166a975 975 40 0 1 207.568-32.97L1429.44 76.748a1425 1425 0 0 0-303.368 48.187z" stroke-width="7" stroke="#000" stroke-linecap="round" fill="#00662c"/><path d="M1244.154 559.166a975 975 40 0 1 207.568-32.97L1429.44 76.748a1425 1425 0 0 0-303.368 48.187z" class="cls1"/></g></svg>